<?xml version="1.0" standalone="no"?>
<!DOCTYPE svg PUBLIC "-//W3C//DTD SVG 20010904//EN"
 "http://www.w3.org/TR/2001/REC-SVG-20010904/DTD/svg10.dtd">
<svg version="1.0" xmlns="http://www.w3.org/2000/svg"
 width="66.000000pt" height="66.000000pt" viewBox="0 0 66.000000 66.000000"
 preserveAspectRatio="xMidYMid meet">

<g transform="translate(0.000000,66.000000) scale(0.100000,-0.100000)"
fill="#000000" stroke="none">
<path d="M80 610 c-14 -14 -20 -33 -20 -64 0 -30 -5 -46 -15 -50 -8 -3 -15
-10 -15 -16 0 -5 7 -10 15 -10 11 0 15 -11 15 -40 0 -29 -4 -40 -15 -40 -8 0
-15 -4 -15 -10 0 -5 7 -10 15 -10 11 0 15 -11 15 -40 0 -29 -4 -40 -15 -40 -8
0 -15 -5 -15 -10 0 -6 7 -13 15 -16 21 -8 21 -74 0 -74 -8 0 -15 -7 -15 -15 0
-8 7 -15 15 -15 11 0 15 -11 15 -43 0 -60 21 -87 71 -87 l39 0 0 300 0 300
-35 0 c-22 0 -43 -8 -55 -20z m55 -125 c0 -14 -7 -21 -25 -22 -14 -1 -18 0 -7
3 9 3 17 12 17 19 0 7 -8 16 -17 19 -11 3 -7 4 7 3 18 -1 25 -8 25 -22z m1
-90 c7 -16 -12 -45 -28 -45 -6 0 -4 7 3 16 11 14 10 18 -6 30 -18 14 -18 14 3
14 13 0 25 -7 28 -15z m-8 -94 c20 -12 10 -45 -13 -48 -11 -2 -14 0 -7 3 17 8
15 34 -4 34 -8 0 -12 5 -9 10 7 12 16 12 33 1z m9 -135 c-4 -9 -17 -15 -29
-15 -17 1 -18 2 -5 6 9 2 17 11 17 19 0 8 -8 14 -17 14 -15 0 -16 2 -3 10 19
12 45 -12 37 -34z"/>
<path d="M247 497 c-3 -8 1 -14 9 -14 16 0 19 13 5 21 -5 3 -11 0 -14 -7z"/>
<path d="M226 453 c-6 -14 -5 -15 5 -6 7 7 10 15 7 18 -3 3 -9 -2 -12 -12z"/>
<path d="M270 461 c0 -6 4 -13 10 -16 6 -3 7 1 4 9 -7 18 -14 21 -14 7z"/>
<path d="M607 366 c-11 -8 -14 -17 -8 -20 5 -4 15 3 21 14 13 23 11 24 -13 6z"/>
<path d="M528 335 c-10 -13 -16 -30 -13 -37 3 -8 -7 -25 -21 -38 -15 -14 -24
-18 -20 -10 4 8 -4 2 -18 -15 l-26 -30 21 -18 c12 -10 26 -16 30 -15 5 2 33
37 62 78 l54 74 -22 18 c-28 22 -26 22 -47 -7z"/>
<path d="M410 140 c0 -5 5 -10 10 -10 6 0 10 5 10 10 0 6 -4 10 -10 10 -5 0
-10 -4 -10 -10z"/>
</g>
</svg>
